<svg width="17" height="17" viewBox="0 0 17 17" fill="none" xmlns="http://www.w3.org/2000/svg">
<path fill-rule="evenodd" clip-rule="evenodd" d="M16.0621 0H0.937931C0.419923 0 0 0.419923 0 0.937931V16.0621C0 16.5801 0.419923 17 0.937931 17H9.08621V10.4257H6.87328V7.85224H9.08621V5.95879C9.08621 3.76345 10.4286 2.56759 12.3866 2.56759C13.0463 2.56615 13.7058 2.59941 14.3621 2.66724V4.96224H13.0138C11.9469 4.96224 11.7388 5.46638 11.7388 6.21086V7.84931H14.2888L13.9576 10.4228H11.7241V17H16.0621C16.5801 17 17 16.5801 17 16.0621V0.937931C17 0.419923 16.5801 0 16.0621 0Z" fill="white"/>
</svg>
