<svg width="18" height="17" viewBox="0 0 18 17" fill="none" xmlns="http://www.w3.org/2000/svg">
<path fill-rule="evenodd" clip-rule="evenodd" d="M2.18381 0C0.863556 0 0 0.855911 0 1.98146C0 3.08249 0.838572 3.96437 2.13259 3.96437H2.15837C3.50419 3.96437 4.34117 3.08265 4.34117 1.98146C4.31581 0.855911 3.50419 0 2.18381 0ZM17.998 10.4225V16.9998H14.14V10.863C14.14 9.32142 13.582 8.26933 12.1855 8.26933C11.1195 8.26933 10.4851 8.97836 10.206 9.66423C10.1042 9.90943 10.078 10.2507 10.078 10.5939V16.9998H6.21875C6.21875 16.9998 6.27073 6.60611 6.21875 5.52924H10.0777V7.15515C10.074 7.16089 10.0697 7.16685 10.0655 7.17277C10.0609 7.1794 10.0562 7.18599 10.0523 7.19221H10.0777V7.15515C10.5903 6.37469 11.506 5.25977 13.5554 5.25977C16.0945 5.25972 17.998 6.8992 17.998 10.4225ZM4.09219 16.9999H0.234375V5.5293H4.09219V16.9999Z" fill="white"/>
</svg>
